<?xml version="1.0" encoding="UTF-8"?><svg id="_レイヤー_1" xmlns="http://www.w3.org/2000/svg" width="60" height="60" viewBox="0 0 60 60"><g id="icon_fb"><path d="m60,30C60,13.43,46.57,0,30,0S0,13.43,0,30c0,14.97,10.97,27.38,25.31,29.64v-20.96h-7.62v-8.67h7.62v-6.61c0-7.52,4.48-11.67,11.33-11.67,3.28,0,6.72.59,6.72.59v7.38h-3.78c-3.73,0-4.89,2.31-4.89,4.68v5.63h8.32l-1.33,8.67h-6.99v20.96c14.34-2.25,25.31-14.66,25.31-29.64Z" fill="#1877f2"/><path d="m41.68,38.67l1.33-8.67h-8.32v-5.63c0-2.37,1.16-4.68,4.89-4.68h3.78v-7.38s-3.43-.59-6.72-.59c-6.85,0-11.33,4.15-11.33,11.67v6.61h-7.62v8.67h7.62v20.96c1.53.24,3.09.36,4.69.36s3.16-.12,4.69-.36v-20.96h6.99Z" fill="#fff"/></g></svg>