<?xml version="1.0" encoding="UTF-8"?><svg id="_レイヤー_1" xmlns="http://www.w3.org/2000/svg" width="60" height="60" viewBox="0 0 60 60"><g id="icon_x_b"><path d="m30,0C13.43,0,0,13.43,0,30c0,14.97,10.97,27.38,25.31,29.64,1.53.24,3.09.36,4.69.36s3.16-.12,4.69-.36c14.34-2.25,25.31-14.66,25.31-29.64C60,13.43,46.57,0,30,0Z"/><path id="icon_sns_x" d="m32.85,27.65l11.17-12.98h-2.65l-9.7,11.27-7.75-11.27h-8.93l11.71,17.05-11.71,13.61h2.65l10.24-11.9,8.18,11.9h8.93l-12.15-17.68h0Zm-3.62,4.21l-1.19-1.7-9.44-13.51h4.07l7.62,10.9,1.19,1.7,9.9,14.17h-4.07l-8.08-11.56h0Z" fill="#fff"/></g></svg>