<?xml version="1.0" encoding="utf-8"?>
<!-- Generator: Adobe Illustrator 22.1.0, SVG Export Plug-In . SVG Version: 6.00 Build 0)  -->
<svg version="1.1" id="レイヤー_1" xmlns="http://www.w3.org/2000/svg" xmlns:xlink="http://www.w3.org/1999/xlink" x="0px"
	 y="0px" width="100px" height="100px" viewBox="0 0 100 100" style="enable-background:new 0 0 100 100;" xml:space="preserve">
<style type="text/css">
	.st0{fill:#288E44;}
</style>
<path class="st0" d="M50,0C22.4,0,0,22.4,0,50c0,27.6,22.4,50,50,50s50-22.4,50-50C100,22.4,77.6,0,50,0z M50,7.8
	c21.9,0,39.9,16.8,42,38.1H66.6c-1.8-7.5-8.5-13.1-16.6-13.1s-14.8,5.6-16.6,13.1H8C10.1,24.6,28.1,7.8,50,7.8z M59.2,49.8
	c0,5.1-4.1,9.2-9.2,9.2s-9.2-4.1-9.2-9.2c0-5.1,4.1-9.2,9.2-9.2S59.2,44.7,59.2,49.8z M50,92.2c-22,0-40.1-16.9-42-38.4h25.4
	C35.2,61.2,42,66.9,50,66.9s14.8-5.6,16.6-13.1H92C90.1,75.3,72,92.2,50,92.2z"/>
</svg>
